# xmcd
#
# Track frame offsets: 
#        150
#        11903
#        24652
#        34871
#        47168
#        57868
#        69138
#        81246
#        92348
#        103981
#        117517
#        129020
#        141557
#        151690
#        161448
#        171981
#        183537
#
# Disc length: 2605 seconds
#
# Revision: 0
# Processed by: cddbd v1.5.2PL0 Copyright (c) Steve Scherf et al.
# Submitted via: ExactAudioCopy v0.99pb1
#
DISCID=e00a2b11
DTITLE=Charlie Rich - Big Boss Man:  The Groove Sessions
DYEAR=1998
DGENRE=Country
TTITLE0=Big Boss Man
TTITLE1=River Stay Away From My Door
TTITLE2=Big Jack
TTITLE3=Mountain Dew
TTITLE4=She Loved Everybody But Me
TTITLE5=Let Me Go My Merry Way
TTITLE6=Ol' Man River
TTITLE7=The Grass is Always Greener
TTITLE8=The Ways of a Woman in Love
TTITLE9=Why Oh Why
TTITLE10=Rosanna Now
TTITLE11=Are You Still My Baby
TTITLE12=I Don't See Me in Your Eyes Anymore
TTITLE13=Now Everybody Knows
TTITLE14=Tomorrow Night
TTITLE15=Share Your Love With Me
TTITLE16=I'm Right Behind You
EXTD=
EXTT0=
EXTT1=
EXTT2=
EXTT3=
EXTT4=
EXTT5=
EXTT6=
EXTT7=
EXTT8=
EXTT9=
EXTT10=
EXTT11=
EXTT12=
EXTT13=
EXTT14=
EXTT15=
EXTT16=
PLAYORDER=
